<svg xmlns="http://www.w3.org/2000/svg" viewBox="0 0 264.3 334.15">
  <title>choki</title>
  <g id="レイヤー_2" data-name="レイヤー 2">
    <g id="レイヤー_1-2" data-name="レイヤー 1">
      <g>
        <path d="M175,153c-3-.11-6.38-.18-10-.18,4.05-49.38,11.88-88.33,8.53-117.35-3.09-26.75-14.24-33-26.15-29.71-12.63,3.47-23.14,26.31-27.32,53.78-5.16,33.93-7.73,70.21-17.85,103.59-18.53-39.94-25.65-55.58-39.9-86.85C50.8,51,38.39,29.68,25.33,28.66,13,27.7,3.25,35.93,5.27,62.78c2.4,31.9,21.3,72.68,45.21,124.94,3.87,8.45-6.21,23.84-7.06,36.51C39.71,279.37,70.88,334,153,328.79c55.85-3.57,100.26-37.12,100.73-92.38C254.26,173.7,239.27,155.46,175,153Z" style="fill: #faebd9;stroke: #c69c6d;stroke-linecap: round;stroke-linejoin: round;stroke-width: 10px"/>
        <path d="M207,242c.11,10.57-9.68,19.34-22,19.49h0c-12.34.15-22-8.81-22.89-19.83-3.88-47-.61-60.18,6.38-90.57a22.37,22.37,0,0,1,25-17.06c12.06,1.6,21.81,18.12,20.48,28.6C209.11,200.88,206.58,203.43,207,242Z" style="fill: #faebd9;stroke: #c69c6d;stroke-linecap: round;stroke-miterlimit: 10;stroke-width: 10px"/>
        <path d="M253.73,236.41c-.47,55.26-44.88,88.8-100.73,92.38C70.88,334,35.35,280.47,39,225.32c.85-12.68,7.49-28.68,14.42-34.88,14.59-13.06,62.93-12.3,74.92-10.67s33,6.79,40.06,21.23,6,24-4.62,27.79-34.88-.52-47.14,1.39,15.54,11.16,24.27,27.5-3,43.6-3,43.6" style="fill: #faebd9;stroke: #c69c6d;stroke-linecap: round;stroke-miterlimit: 10;stroke-width: 10px"/>
        <path d="M251.89,235.45c-2.29,11.61-9.49,22-21.56,21.62h0c-12.06-.37-20.82-9.13-21.67-19.37-2.61-31.35,1.07-42.31,6.5-65.61,2.33-10,13.12-16.77,25-14.8h0c11.91,2,20.24,20.1,19,29.84C256.51,208,256.19,213.67,251.89,235.45Z" style="fill: #faebd9;stroke: #c69c6d;stroke-linecap: round;stroke-miterlimit: 10;stroke-width: 10px"/>
      </g>
    </g>
  </g>
</svg>
