<svg xmlns="http://www.w3.org/2000/svg" viewBox="0 0 252.15 251.32">
  <title>guu</title>
  <g id="レイヤー_2" data-name="レイヤー 2">
    <g id="レイヤー_1-2" data-name="レイヤー 1">
      <g>
        <path d="M202,95.12c-15-16.36-53.66-40.2-73.56-45.7,17-21.79,11.07-28.91,2.45-36.65C116.88.15,98.19,1.79,80.81,26c-5.86,8.15-23,13.35-33.38,22.33C2.3,87.35-16,152.82,50.48,211.83c45.19,40.14,104.68,48.73,147.44,7.09C246.44,171.67,249,146.3,202,95.12Z" style="fill: #faebd9;stroke: #c69c6d;stroke-linecap: round;stroke-miterlimit: 10;stroke-width: 10px"/>
        <path d="M126,132.71c-10.61,15.73-14.12,12.26-31.6,1.34h0c-12-7.49-17.33-20.76-11.58-29.3,20.84-30.93,27.73-31,51.56-60.21,12.37-15.16,28.92-17.19,42.89-5.38,9.7,8.2,8.67,24.3,1.83,31.51C154.13,97,146.07,102.94,126,132.71Z" style="fill: #faebd9;stroke: #c69c6d;stroke-linecap: round;stroke-miterlimit: 10;stroke-width: 10px"/>
        <path d="M167.43,161.71c-5.52,8-18.62,9.32-29.36,2.71h0c-10.73-6.61-14.29-18.63-9.22-27.44,21.61-37.6,31.43-45.76,53.6-64.89,7.86-6.78,21-7.14,30.65.75s9.2,25.55,2.49,32.75C191.09,131.83,187.56,132.38,167.43,161.71Z" style="fill: #faebd9;stroke: #c69c6d;stroke-linecap: round;stroke-miterlimit: 10;stroke-width: 10px"/>
        <path d="M209.65,181.24c-8.14,7.52-19.87,11.43-30.08,4.57h0c-10.2-6.85-13.11-18.23-8.41-26.43,14.4-25.09,23.4-31.35,40.45-46,7.32-6.28,20.22-5.51,29.45,2.46h0c9.23,8,6.79,26.2.54,32.87C228.24,163,224.93,167.14,209.65,181.24Z" style="fill: #faebd9;stroke: #c69c6d;stroke-linecap: round;stroke-miterlimit: 10;stroke-width: 10px"/>
        <path d="M197.92,218.92C155.15,260.56,95.67,252,50.48,211.83c-66.44-59-52.33-127-7.21-166.07,10.37-9,27.7-16,37.73-15.45,21.11,1.27,57.26,38.94,65.12,49.38s19.85,30.46,14.16,46.87-13.83,22.83-24.83,17.58S109.35,117,98.56,109s3.24,20.4-2.66,39.52-35.71,30.85-35.71,30.85" style="fill: #faebd9;stroke: #c69c6d;stroke-linecap: round;stroke-miterlimit: 10;stroke-width: 10px"/>
      </g>
    </g>
  </g>
</svg>
