<svg xmlns="http://www.w3.org/2000/svg" viewBox="0 0 287.76 302.65">
  <title>paa</title>
  <g id="レイヤー_2" data-name="レイヤー 2">
    <g id="レイヤー_1-2" data-name="レイヤー 1">
      <g>
        <path d="M277.48,63.76c-10.4-5.27-21.06,1.18-28.54,18.5-9.32,21.58-25.79,62.64-25.89,62.6,5.38-31.16,8.35-78.14,8.31-98.37,0-24-7.77-31.19-19.1-32.5-11.58-1.34-20.88,17.06-24.49,45.19-3.7,28.88-5,40.21-11.14,75.76h-.14C169.54,92.3,163,61.91,158,36.4c-4.44-22.59-17.2-33.21-28-31.15-11.45,2.19-19.2,20.11-16.43,45C117,81.06,119,106,125.73,143.46,109.45,109.53,108,106.71,93.91,80.53,82.19,58.75,62,36.83,50.27,39.62,40.12,42,33.59,56.32,42.14,79.3c7.87,21.14,16.65,43,39.83,89,3.72,7.39,5.71,15.5,4.06,26.69-7.17,48.67-1,88,72.22,89.16,49.81.77,99.23-17.69,103.54-66.69,1.44-16.31.47-29.86-2.92-41,12.51-40,14.22-42.55,19.6-66.36C283.55,87.61,285.15,67.65,277.48,63.76Z" style="fill: #faebd9;stroke: #c69c6d;stroke-linecap: round;stroke-linejoin: round;stroke-width: 10px"/>
        <path d="M261.78,217.49c-4.31,49-38.31,71.13-87.6,78.43-59.67,8.83-82.14-17.72-102.34-41.09C51,230.69,38.15,218.33,19.34,202.12c-14-12-18.81-26-9.66-37,7.7-9.26,28.37-6.33,40.6.91,14.24,8.44,27.12,21.52,38,23.56,20.82,3.92,31.37-3.44,47.43,5.94,28.86,16.85,29.71,49.09,29.71,49.09" style="fill: #faebd9;stroke: #c69c6d;stroke-linecap: round;stroke-miterlimit: 10;stroke-width: 10px"/>
      </g>
    </g>
  </g>
</svg>
